# xmcd CD database file
# Copyright (C) 1996 Ti Kan
#
# Track frame offsets:
# 	187
# 	13970
# 	32782
# 	47777
# 	63957
# 	78762
# 	91182
# 	103245
# 	117570
# 	130232
# 	140445
# 	153275
# 	167057
# 	179957
# 	195507
#
# Disc length: 2771 seconds
#
# Revision: 1
# Processed by: cddbd v1.5PL3 Copyright (c) Steve Scherf et al.
# Submitted via: DiscPlay 3.4.1
#
DISCID=cf0ad10f
DTITLE=Carlos y José - Los Barón de Apodaca - Fidencio Ayala - etc - Los Mejore
DTITLE=s 15 Exitos Norteños
DYEAR=1900
DGENRE=Country
TTITLE0=Amores fingidos
TTITLE1=Los años viejos
TTITLE2=Cuando nadie te quiera
TTITLE3=Por esa calle vive
TTITLE4=Chiquilla cariñosa
TTITLE5=Eres todo todo
TTITLE6=Un poquitin de Amor
TTITLE7=Pero hombre amigo (El Chubasco)
TTITLE8=Flor de capomo
TTITLE9=Aguanta corazón
TTITLE10=Mi casa nueva
TTITLE11=Eslabón por eslabón
TTITLE12=Mi golondrina
TTITLE13=Dos monedas
TTITLE14=Bonita finca de adobe
EXTD=
EXTT0=
EXTT1=
EXTT2=
EXTT3=
EXTT4=
EXTT5=
EXTT6=
EXTT7=
EXTT8=
EXTT9=
EXTT10=
EXTT11=
EXTT12=
EXTT13=
EXTT14=
PLAYORDER=
